<svg xmlns="http://www.w3.org/2000/svg" viewBox="0 0 200 64" fill="none">
  <!-- Símbolo: G geométrico -->
  <path
    d="M32 12c-11.046 0-20 8.954-20 20s8.954 20 20 20c5.523 0 10.523-2.239 14.142-5.858L40 40.142A12 12 0 1 1 44 32c0 .682-.057 1.35-.167 2H32v-8h20v8c0 11.046-8.954 20-20 20S12 43.046 12 32 20.954 12 32 12c5.523 0 10.523 2.239 14.142 5.858l-5.657 5.657A12 12 0 0 0 32 20"
    fill="currentColor"
    fill-rule="evenodd"
    clip-rule="evenodd"
  />
  <!-- Wordmark -->
  <text
    x="64"
    y="42"
    font-family="ui-sans-serif, system-ui, -apple-system, BlinkMacSystemFont, 'Segoe UI', sans-serif"
    font-size="28"
    font-weight="700"
    letter-spacing="-1"
    fill="currentColor"
  >Grynd</text>
</svg>
